<mxfile host="Electron" modified="2024-07-26T07:06:31.642Z" agent="Mozilla/5.0 (Macintosh; Intel Mac OS X 10_15_7) AppleWebKit/537.36 (KHTML, like Gecko) draw.io/24.6.4 Chrome/124.0.6367.207 Electron/30.0.6 Safari/537.36" etag="PtjkgmuGNxrzsBaGFGt7" version="24.6.4" type="device">
  <diagram name="第 1 页" id="aMix8Y7UbtPB9c_xRZLL">
    <mxGraphModel dx="954" dy="727" grid="1" gridSize="10" guides="1" tooltips="1" connect="1" arrows="1" fold="1" page="1" pageScale="1" pageWidth="827" pageHeight="1169" math="0" shadow="0">
      <root>
        <mxCell id="0" />
        <mxCell id="1" parent="0" />
        <mxCell id="7pD6jBlOZtthiX4sdHIk-1" value="[1,2,2,2,1]" style="text;html=1;align=center;verticalAlign=middle;resizable=0;points=[];autosize=1;strokeColor=none;fillColor=none;" vertex="1" parent="1">
          <mxGeometry x="350" y="108" width="80" height="30" as="geometry" />
        </mxCell>
        <mxCell id="7pD6jBlOZtthiX4sdHIk-3" value="1" style="text;html=1;align=center;verticalAlign=middle;resizable=0;points=[];autosize=1;strokeColor=none;fillColor=none;" vertex="1" parent="1">
          <mxGeometry x="105" y="228" width="30" height="30" as="geometry" />
        </mxCell>
        <mxCell id="7pD6jBlOZtthiX4sdHIk-5" value="" style="endArrow=none;html=1;rounded=0;entryX=0;entryY=0.8;entryDx=0;entryDy=0;entryPerimeter=0;" edge="1" parent="1" target="7pD6jBlOZtthiX4sdHIk-7">
          <mxGeometry width="50" height="50" relative="1" as="geometry">
            <mxPoint x="130" y="228" as="sourcePoint" />
            <mxPoint x="180" y="178" as="targetPoint" />
          </mxGeometry>
        </mxCell>
        <mxCell id="7pD6jBlOZtthiX4sdHIk-7" value="2" style="text;html=1;align=center;verticalAlign=middle;resizable=0;points=[];autosize=1;strokeColor=none;fillColor=none;" vertex="1" parent="1">
          <mxGeometry x="190" y="160" width="30" height="30" as="geometry" />
        </mxCell>
        <mxCell id="7pD6jBlOZtthiX4sdHIk-12" value="" style="endArrow=none;html=1;rounded=0;exitX=1.133;exitY=0.533;exitDx=0;exitDy=0;exitPerimeter=0;" edge="1" parent="1" source="7pD6jBlOZtthiX4sdHIk-7">
          <mxGeometry width="50" height="50" relative="1" as="geometry">
            <mxPoint x="290" y="190" as="sourcePoint" />
            <mxPoint x="320" y="176" as="targetPoint" />
          </mxGeometry>
        </mxCell>
        <mxCell id="7pD6jBlOZtthiX4sdHIk-13" value="2" style="text;html=1;align=center;verticalAlign=middle;resizable=0;points=[];autosize=1;strokeColor=none;fillColor=none;" vertex="1" parent="1">
          <mxGeometry x="320" y="160" width="30" height="30" as="geometry" />
        </mxCell>
        <mxCell id="7pD6jBlOZtthiX4sdHIk-14" value="" style="endArrow=none;html=1;rounded=0;exitX=1.133;exitY=0.533;exitDx=0;exitDy=0;exitPerimeter=0;" edge="1" parent="1">
          <mxGeometry width="50" height="50" relative="1" as="geometry">
            <mxPoint x="350" y="174.5" as="sourcePoint" />
            <mxPoint x="446" y="174.5" as="targetPoint" />
          </mxGeometry>
        </mxCell>
        <mxCell id="7pD6jBlOZtthiX4sdHIk-15" value="2" style="text;html=1;align=center;verticalAlign=middle;resizable=0;points=[];autosize=1;strokeColor=none;fillColor=none;" vertex="1" parent="1">
          <mxGeometry x="450" y="160" width="30" height="30" as="geometry" />
        </mxCell>
        <mxCell id="7pD6jBlOZtthiX4sdHIk-16" value="" style="endArrow=none;html=1;rounded=0;exitX=1.133;exitY=0.533;exitDx=0;exitDy=0;exitPerimeter=0;" edge="1" parent="1">
          <mxGeometry width="50" height="50" relative="1" as="geometry">
            <mxPoint x="480" y="174.5" as="sourcePoint" />
            <mxPoint x="576" y="174.5" as="targetPoint" />
          </mxGeometry>
        </mxCell>
        <mxCell id="7pD6jBlOZtthiX4sdHIk-17" value="2" style="text;html=1;align=center;verticalAlign=middle;resizable=0;points=[];autosize=1;strokeColor=none;fillColor=none;" vertex="1" parent="1">
          <mxGeometry x="575" y="160" width="30" height="30" as="geometry" />
        </mxCell>
        <mxCell id="7pD6jBlOZtthiX4sdHIk-18" value="" style="endArrow=none;html=1;rounded=0;entryX=1.1;entryY=0.667;entryDx=0;entryDy=0;entryPerimeter=0;exitX=-0.067;exitY=0.1;exitDx=0;exitDy=0;exitPerimeter=0;" edge="1" parent="1" source="7pD6jBlOZtthiX4sdHIk-19" target="7pD6jBlOZtthiX4sdHIk-17">
          <mxGeometry width="50" height="50" relative="1" as="geometry">
            <mxPoint x="650" y="220" as="sourcePoint" />
            <mxPoint x="665" y="221" as="targetPoint" />
          </mxGeometry>
        </mxCell>
        <mxCell id="7pD6jBlOZtthiX4sdHIk-19" value="1" style="text;html=1;align=center;verticalAlign=middle;resizable=0;points=[];autosize=1;strokeColor=none;fillColor=none;" vertex="1" parent="1">
          <mxGeometry x="670" y="228" width="30" height="30" as="geometry" />
        </mxCell>
      </root>
    </mxGraphModel>
  </diagram>
</mxfile>
